<?xml version="1.0" standalone="no"?>
<!DOCTYPE svg PUBLIC "-//W3C//DTD SVG 20010904//EN"
 "http://www.w3.org/TR/2001/REC-SVG-20010904/DTD/svg10.dtd">
<svg version="1.0" xmlns="http://www.w3.org/2000/svg"
 width="512.000000pt" height="512.000000pt" viewBox="0 0 512.000000 512.000000"
 preserveAspectRatio="xMidYMid meet">
<metadata>
Created by potrace 1.14, written by Peter Selinger 2001-2017
</metadata>
<g transform="translate(0.000000,512.000000) scale(0.100000,-0.100000)"
fill="#000000" stroke="none">
<path d="M1719 5115 c-2 -1 -76 -6 -164 -9 -88 -3 -171 -8 -185 -10 -14 -3
-47 -7 -75 -11 -187 -23 -417 -94 -559 -173 -346 -191 -577 -512 -664 -922
-52 -241 -57 -378 -57 -1430 0 -883 6 -1150 29 -1285 3 -16 8 -48 11 -70 30
-201 121 -433 237 -601 63 -91 198 -231 293 -302 118 -88 376 -206 498 -228
17 -3 33 -6 36 -8 3 -2 22 -7 41 -10 19 -3 46 -8 59 -10 13 -3 49 -8 80 -11
31 -4 67 -8 81 -11 84 -13 416 -19 1180 -19 866 0 1198 8 1296 30 12 3 39 7
60 10 133 19 336 85 461 149 237 121 453 344 573 591 63 130 122 323 136 450
3 22 6 45 9 52 15 44 20 360 20 1288 0 1057 -3 1171 -30 1337 -11 64 -12 68
-29 135 -106 407 -345 711 -698 889 -68 34 -274 107 -335 119 -118 22 -209 35
-273 40 -41 3 -102 8 -135 11 -65 6 -1891 15 -1896 9z m1746 -469 c94 -4 188
-9 210 -11 22 -2 69 -7 105 -10 36 -4 67 -8 70 -10 3 -2 21 -6 40 -9 99 -16
236 -66 330 -122 86 -50 225 -190 279 -280 40 -68 105 -231 116 -291 2 -15 7
-39 9 -53 35 -176 40 -359 41 -1290 0 -732 -6 -1056 -20 -1170 -3 -19 -7 -56
-10 -82 -17 -145 -85 -330 -163 -444 -149 -217 -395 -350 -717 -388 -247 -30
-2138 -30 -2360 0 -237 31 -420 96 -541 192 -214 169 -323 392 -358 732 -28
263 -28 1950 -1 2284 17 214 90 438 182 564 47 65 176 183 243 223 104 61 226
106 355 130 47 9 70 12 185 23 25 3 144 8 265 12 121 3 221 7 222 8 6 5 1381
-3 1518 -8z"/>
<path d="M3879 4225 c-154 -30 -251 -153 -245 -310 9 -255 302 -384 501 -220
60 48 107 144 107 217 2 203 -171 352 -363 313z"/>
<path d="M2517 3874 c-1 -1 -36 -4 -78 -7 -41 -4 -98 -11 -125 -17 -27 -7 -59
-14 -71 -16 -12 -2 -62 -18 -110 -35 -261 -91 -496 -273 -653 -504 -326 -481
-292 -1139 83 -1580 129 -152 271 -261 452 -346 278 -131 587 -158 895 -80
173 45 377 151 509 267 294 257 456 600 465 984 2 94 -14 244 -36 325 -6 22
-11 45 -12 50 -17 88 -116 295 -195 405 -240 337 -622 541 -1034 553 -48 2
-88 2 -90 1z m240 -484 c249 -60 441 -206 566 -431 33 -61 74 -176 82 -230 3
-24 8 -56 11 -72 26 -128 -20 -366 -96 -502 -157 -281 -434 -446 -747 -446
-226 0 -418 75 -583 229 -264 244 -345 623 -206 951 110 258 346 452 616 506
101 20 261 18 357 -5z"/>
</g>
</svg>
